<?xml version="1.0" standalone="no"?>
<!DOCTYPE svg PUBLIC "-//W3C//DTD SVG 20010904//EN"
 "http://www.w3.org/TR/2001/REC-SVG-20010904/DTD/svg10.dtd">
<svg version="1.0" xmlns="http://www.w3.org/2000/svg"
 width="453.000000pt" height="453.000000pt" viewBox="0 0 453.000000 453.000000"
 preserveAspectRatio="xMidYMid meet">
<metadata>
Created by potrace 1.14, written by Peter Selinger 2001-2017
</metadata>
<g transform="translate(0.000000,453.000000) scale(0.100000,-0.100000)"
fill="#000000" stroke="none">
<path d="M1945 4075 c-102 -36 -225 -104 -326 -181 -75 -58 -201 -193 -197
-213 2 -9 19 -21 38 -27 23 -8 36 -19 38 -32 2 -16 139 -159 268 -281 9 -8 49
-15 107 -18 51 -3 93 -6 95 -7 1 -2 -7 -29 -18 -61 -11 -32 -20 -66 -20 -75 0
-19 -36 -30 -94 -30 -17 0 -78 -11 -135 -25 l-105 -26 -65 63 -66 63 64 -67
c45 -46 60 -69 50 -72 -8 -2 -39 -12 -69 -22 -79 -25 -212 -83 -232 -101 -10
-9 -23 -41 -29 -73 -10 -53 -16 -61 -80 -116 -78 -67 -78 -67 -58 -224 15
-120 34 -156 139 -259 89 -88 120 -111 230 -169 30 -16 64 -34 75 -40 11 -6
35 -17 53 -24 17 -7 32 -16 32 -20 0 -5 3 -7 8 -6 4 1 38 -8 76 -20 37 -12 81
-22 97 -22 28 0 177 55 289 106 95 44 234 48 309 10 14 -8 80 -36 146 -62 152
-62 192 -63 318 -11 48 20 89 37 92 37 3 0 5 -11 5 -25 0 -28 -40 -75 -63 -75
-8 0 -34 -37 -58 -82 -72 -135 -191 -234 -419 -349 -148 -74 -177 -74 -330 5
-203 104 -319 192 -388 295 l-38 57 -272 -265 c-178 -174 -272 -273 -272 -286
0 -24 32 -86 68 -132 37 -47 124 -103 189 -122 l55 -16 27 -85 c30 -94 70
-178 108 -227 23 -32 26 -33 100 -33 73 0 75 1 70 22 -33 129 -35 148 -21 148
8 0 17 -6 20 -14 6 -16 124 -82 124 -69 0 4 -16 30 -35 57 -19 27 -34 50 -32
51 1 1 29 -1 62 -6 33 -4 102 -8 154 -8 88 -1 95 -3 131 -31 85 -68 162 -66
240 5 23 21 38 23 184 30 l160 7 -17 -26 c-9 -14 -24 -37 -33 -51 -9 -14 -13
-25 -10 -25 12 0 91 42 109 58 15 14 17 13 17 -4 0 -18 -15 -91 -26 -126 -5
-16 3 -18 70 -18 73 0 76 1 100 33 33 43 100 186 121 258 15 56 17 57 63 69
120 30 225 125 263 238 23 67 23 67 29 32 10 -60 17 115 8 207 -7 73 -49 230
-83 308 -67 153 -89 207 -103 248 -9 26 -19 47 -22 47 -4 0 -10 -51 -14 -112
-4 -62 -11 -140 -17 -173 -5 -33 -23 -170 -40 -305 -16 -135 -32 -253 -35
-262 -5 -16 -19 -18 -100 -18 -52 0 -94 3 -94 8 0 4 7 45 15 92 22 134 34 269
40 479 5 168 8 196 23 207 9 8 23 14 31 14 16 0 143 83 161 105 7 8 15 15 19
15 11 0 131 115 131 126 0 6 11 21 24 33 35 33 44 63 55 191 l10 115 -26 38
c-15 21 -44 58 -65 82 -26 30 -41 58 -47 92 -15 75 -20 83 -80 110 -272 122
-593 177 -994 171 l-217 -3 0 30 c0 17 5 48 11 69 l11 39 101 -7 102 -6 -142
142 c-79 79 -143 147 -143 151 0 4 243 7 541 6 297 0 543 2 547 5 3 4 0 12 -6
18 -18 18 -15 48 6 48 9 0 37 -16 61 -35 39 -31 91 -47 91 -27 0 4 -22 36 -49
72 -107 142 -302 302 -446 365 -30 14 -94 35 -141 46 -80 21 -93 21 -183 9
-75 -10 -112 -10 -162 -1 -105 18 -156 13 -264 -24z m711 -950 c285 -33 475
-105 578 -216 67 -72 71 -88 63 -265 -6 -159 -15 -180 -109 -280 -85 -89 -143
-117 -289 -138 -133 -20 -280 -20 -476 -1 -134 13 -170 13 -290 0 -175 -19
-299 -19 -443 -1 -139 18 -195 34 -260 76 -52 33 -145 137 -161 178 -16 41
-23 275 -10 327 32 127 133 202 364 269 241 70 683 92 1033 51z m-1110 -1407
c6 -10 20 -160 26 -284 2 -33 6 -41 18 -36 8 2 -23 -34 -70 -82 -95 -97 -94
-97 -104 19 -6 80 -22 190 -31 221 -5 17 8 37 66 98 40 42 76 76 80 76 4 0 11
-5 15 -12z m1031 -370 c-2 -29 -3 -8 -3 47 0 55 1 79 3 53 2 -26 2 -71 0 -100z
m283 -89 c-5 -46 -10 -90 -10 -97 0 -11 -8 -13 -30 -8 -27 5 -30 3 -31 -22 -1
-15 -5 -38 -9 -52 -5 -16 -6 -5 -3 31 5 52 4 56 -17 62 -21 5 -18 10 33 59 34
34 57 66 62 87 13 59 16 25 5 -60z m-1129 -9 c13 -14 35 -33 49 -43 24 -16 24
-17 5 -32 -19 -14 -83 -31 -89 -24 -2 2 -6 45 -10 94 -5 81 -5 87 8 60 7 -16
24 -41 37 -55z m249 60 c0 -11 -14 -34 -31 -52 l-31 -33 26 33 c14 19 26 42
26 53 0 10 2 19 5 19 3 0 5 -9 5 -20z m635 -60 l30 -35 -32 29 c-18 17 -33 34
-33 40 0 5 1 7 3 5 1 -2 16 -20 32 -39z m152 -232 c-3 -8 -6 -5 -6 6 -1 11 2
17 5 13 3 -3 4 -12 1 -19z m-10 -50 c-3 -8 -6 -5 -6 6 -1 11 2 17 5 13 3 -3 4
-12 1 -19z"/>
<path d="M2030 3000 c-242 -16 -431 -53 -486 -95 -48 -37 -59 -80 -58 -236 2
-204 22 -234 183 -263 157 -28 382 -39 716 -33 472 7 610 32 651 115 16 31 19
62 19 194 0 180 -6 195 -86 235 -126 63 -601 105 -939 83z"/>
<path d="M1360 3603 c-63 -96 -91 -145 -87 -150 3 -2 19 19 37 47 18 27 55 70
82 95 42 38 48 48 38 60 -7 8 -16 15 -19 15 -4 0 -27 -30 -51 -67z"/>
<path d="M1520 3546 c0 -8 -7 -17 -16 -20 -8 -3 -12 -11 -9 -17 5 -7 14 -4 26
7 19 17 21 16 67 -30 29 -30 42 -50 35 -53 -7 -3 -13 -20 -13 -38 0 -19 -9
-58 -19 -87 -30 -84 -33 -105 -15 -122 8 -9 19 -16 23 -16 13 0 28 42 40 109
11 68 35 105 60 96 9 -3 -27 37 -79 90 -52 52 -96 95 -97 95 -2 0 -3 -6 -3
-14z"/>
<path d="M1388 3363 c-27 -7 -31 -35 -6 -57 12 -12 17 -14 10 -5 -9 12 -8 20
4 38 18 25 17 29 -8 24z"/>
<path d="M1727 3225 c-9 -26 -12 -47 -6 -50 8 -6 17 10 33 62 13 43 -13 32
-27 -12z"/>
<path d="M3351 3244 c0 -11 3 -14 6 -6 3 7 2 16 -1 19 -3 4 -6 -2 -5 -13z"/>
<path d="M3454 2418 c3 -13 6 -40 6 -60 0 -21 5 -38 10 -38 6 0 10 27 10 60 0
49 -3 60 -16 60 -12 0 -15 -6 -10 -22z"/>
<path d="M3580 1874 c0 -6 7 -33 16 -60 10 -31 18 -102 21 -191 5 -129 3 -150
-17 -212 -32 -99 -48 -114 -121 -109 -42 3 -59 1 -59 -8 0 -6 -10 -43 -21 -80
-16 -52 -31 -78 -61 -106 -32 -32 -36 -38 -19 -38 36 0 143 63 194 114 125
125 162 371 95 636 -10 43 -28 76 -28 54z"/>
<path d="M2100 1791 c0 -5 9 -13 20 -16 28 -9 290 -9 318 -1 31 10 28 30 -4
22 -34 -9 -287 -10 -313 -1 -12 3 -21 2 -21 -4z"/>
<path d="M901 1704 c0 -11 3 -14 6 -6 3 7 2 16 -1 19 -3 4 -6 -2 -5 -13z"/>
<path d="M891 1570 c-2 -145 53 -305 130 -380 46 -45 144 -106 187 -117 l27
-6 -32 31 c-35 35 -67 112 -78 186 l-8 48 -53 -53 c-29 -29 -55 -51 -57 -48
-15 18 -76 140 -82 164 -4 17 -13 75 -20 130 -11 83 -13 90 -14 45z m214 -320
c-9 -15 -22 -12 -29 7 -9 21 16 37 27 17 4 -8 5 -19 2 -24z"/>
<path d="M1670 665 c40 -40 181 -125 209 -125 6 0 -6 17 -28 39 -21 21 -46 59
-56 85 l-18 46 -75 0 -76 0 44 -45z"/>
<path d="M2746 655 c-15 -30 -44 -68 -64 -85 -20 -16 -31 -30 -23 -30 28 0
156 76 205 122 l51 47 -71 1 -72 0 -26 -55z"/>
</g>
</svg>
